<svg width="728" height="728" viewBox="0 0 728 728" fill="none" xmlns="http://www.w3.org/2000/svg">
<rect width="728" height="728" rx="229" fill="black"/>
<path d="M164 267.521C164 262.217 166.107 257.13 169.858 253.379L245.095 178.142C252.906 170.332 265.569 170.332 273.379 178.142L348.617 253.379C352.367 257.13 354.474 262.217 354.474 267.521V334.475C354.474 345.52 345.52 354.474 334.475 354.474H184C172.954 354.474 164 345.52 164 334.475V267.521Z" fill="white"/>
<path d="M563.996 543.996C563.996 555.042 555.042 563.996 543.996 563.996H477.043C471.739 563.996 466.652 561.889 462.901 558.138L379.38 474.617C375.629 470.866 373.522 465.779 373.522 460.475L373.522 393.522C373.522 382.476 382.476 373.522 393.522 373.522L543.996 373.522C555.042 373.522 563.996 382.476 563.996 393.522V543.996Z" fill="white"/>
<path d="M354.474 468.759C354.474 521.357 311.835 563.996 259.237 563.996C206.639 563.996 164 521.357 164 468.759C164 416.161 206.639 373.522 259.237 373.522C311.835 373.522 354.474 416.161 354.474 468.759Z" fill="white"/>
<path d="M564 259.237C564 311.835 521.361 354.474 468.763 354.474C416.165 354.474 373.526 311.835 373.526 259.237C373.526 206.639 416.165 164 468.763 164C521.361 164 564 206.639 564 259.237Z" fill="white"/>
</svg>
