<svg width="728" height="728" viewBox="0 0 728 728" fill="none" xmlns="http://www.w3.org/2000/svg">
<rect width="728" height="728" rx="364" fill="black"/>
<path d="M364 165L383.444 184.444L364 204.444L344.556 185L364 165ZM264 191.667L290.667 198.889L283.444 225.556L256.778 218.333L264 191.667ZM190.667 265L217.333 257.778L224.556 284.444L197.889 291.667L190.667 265ZM164 365L183.444 345.556L203.444 365L184 384.444L164 365ZM190.667 465L197.889 438.333L224.556 445.556L217.333 472.222L190.667 465ZM264 538.333L256.778 511.667L283.444 504.444L290.667 531.111L264 538.333ZM364 565L344.556 545.556L364 526.111L383.444 545.556L364 565ZM464 538.333L437.333 531.111L444.556 504.444L471.222 511.667L464 538.333ZM537.333 465L510.667 472.222L503.444 445.556L530.111 438.333L537.333 465ZM564 365L544.556 384.444L524.556 365L544 345.556L564 365ZM537.333 265L530.111 291.667L503.444 284.444L510.667 257.778L537.333 265ZM464 191.667L471.222 218.333L444.556 225.556L437.333 198.889L464 191.667Z" fill="white"/>
</svg>
