<svg width="516" height="516" viewBox="0 0 516 516" fill="none" xmlns="http://www.w3.org/2000/svg">
<rect width="516" height="516" rx="129" fill="black"/>
<path fill-rule="evenodd" clip-rule="evenodd" d="M329.75 168.769C349.623 168.842 369.506 168.852 389.379 168.894C389.421 228.492 389.336 288.1 388.936 347.686C346.838 347.57 304.74 347.623 262.632 347.423C284.583 287.72 307.209 228.239 329.75 168.769ZM127.16 168.319C146.801 168.319 166.452 168.288 186.093 168.372C188.455 168.33 188.35 171.399 189.268 172.971C210.332 231.197 232.484 289.002 253.211 347.354C210.997 347.692 168.815 346.932 126.611 347.017C126.801 287.451 126.517 227.874 127.16 168.319Z" fill="#F6F4F4"/>
</svg>
