<svg width="728" height="728" viewBox="0 0 728 728" fill="none" xmlns="http://www.w3.org/2000/svg">
<rect width="728" height="728" rx="120" fill="black"/>
<path d="M564 483.325H468.142C458.675 483.325 449.207 478.592 443.29 470.308L406.604 419.42H564V354.331H442.107L527.314 269.124L481.16 222.97L395.953 308.178V178H330.864V309.361L245.657 222.97L199.503 269.124L284.71 354.331H164V419.42H316.663L282.343 470.308C276.426 479.775 265.775 483.325 256.308 483.325H164V548.414H261.041C284.71 548.414 311.929 538.947 323.763 522.379L361.633 469.124L399.503 522.379C411.337 538.947 438.556 548.414 462.225 548.414H564V483.325Z" fill="white"/>
</svg>
