<svg width="2832" height="2832" viewBox="0 0 2832 2832" fill="none" xmlns="http://www.w3.org/2000/svg">
<g clip-path="url(#clip0_3_105)">
<rect width="2832" height="2832" fill="#7D7D7D"/>
<path d="M825.811 1272.72C949.017 1272.72 1033.04 1274.54 1093.77 1279.61C1154.51 1284.69 1192.31 1293.05 1222.91 1306.32C1249.02 1317.55 1267.82 1332.13 1279.98 1352.57C1292.08 1372.91 1297.23 1398.46 1297.23 1430.92C1297.23 1434.15 1297.24 1445.76 1295.93 1456.63L1295.36 1461.28H1036.88L1036.47 1456.44C1035.19 1441.35 1033.63 1433.18 1030.63 1427.85C1027.88 1422.99 1023.58 1419.92 1014.45 1416.43V1416.43C1004.49 1412.7 991.851 1410.3 958.477 1408.89C925.11 1407.48 871.564 1407.07 780.085 1407.07C670.589 1407.07 612.143 1407.9 580.981 1413.56C565.376 1416.39 557.872 1420.25 554.026 1424.7C550.286 1429.03 549.12 1434.93 549.12 1444.67C549.12 1453.71 551.622 1459.82 556.453 1464.24C561.355 1468.72 569.3 1472.07 581.537 1474.05L582.735 1474.24L582.8 1474.25L582.863 1474.26C593.86 1476.21 616.647 1477.82 659.45 1479.34C702.108 1480.86 764.304 1482.27 853.849 1483.89H853.86C1132.78 1489.54 1188.64 1493.53 1244.38 1515.82L1244.41 1515.83L1244.44 1515.85C1274.32 1528.26 1295.42 1544.05 1308.89 1566.89C1322.28 1589.6 1327.72 1618.61 1327.72 1656.65C1327.72 1704.17 1318.72 1740.49 1297.89 1767.67C1277.03 1794.88 1244.93 1812.12 1200.46 1822.79L1200.46 1822.79C1174.51 1828.99 1134.68 1833.05 1070.04 1835.58C1005.31 1838.11 915.364 1839.12 788.977 1839.12C657.509 1839.12 565.889 1837.3 499.632 1832.43C433.432 1827.56 392.132 1819.63 361.511 1807.18L360.122 1806.62C331.104 1794.78 310.991 1780.55 298.3 1759.39C285.493 1738.03 280.719 1710.37 280.719 1672.83V1641.66H541.499V1646.94C541.499 1663.09 542.816 1672.7 546.03 1679.18C549.031 1685.23 554.031 1689.21 563.574 1693.01L563.583 1693.01L563.592 1693.01C574.849 1697.54 587.179 1700.33 619.673 1701.94C652.221 1703.55 704.472 1703.96 795.327 1703.96C864.572 1703.96 916.429 1703.96 955.304 1703.21C994.258 1702.47 1019.85 1700.98 1036.71 1698.07C1053.76 1695.13 1060.41 1690.96 1063.45 1686.24C1065.02 1683.81 1065.94 1680.77 1066.43 1676.64C1066.93 1672.44 1066.94 1667.56 1066.94 1661.5C1066.94 1653.86 1065.8 1648.35 1063.38 1644.16C1061.03 1640.09 1057.12 1636.69 1050.37 1633.93C1036.39 1628.21 1012.03 1625.93 970.555 1625.52H970.518L970.48 1625.52L767.258 1620.67L767.243 1620.67H767.229L630.053 1616.62V1616.62L561.519 1615C456.849 1612.98 388.508 1603.54 346.364 1578.88C325.047 1566.41 310.409 1550.06 301.188 1529.01C292.027 1508.11 288.34 1482.87 288.34 1452.76C288.34 1400.65 299.939 1361.83 327.33 1334.06C354.584 1306.43 396.626 1290.63 455.475 1282.48L455.495 1282.47L455.515 1282.47C505.466 1275.95 622.709 1272.72 825.811 1272.72ZM1922.3 1272.72C2045.51 1272.72 2129.53 1274.54 2190.26 1279.61C2251 1284.69 2288.8 1293.05 2319.4 1306.32C2345.51 1317.55 2364.31 1332.13 2376.47 1352.57C2388.57 1372.91 2393.72 1398.46 2393.72 1430.92C2393.72 1434.15 2393.73 1445.76 2392.42 1456.63L2391.85 1461.28H2133.37L2132.96 1456.44C2131.68 1441.35 2130.12 1433.18 2127.12 1427.85C2124.37 1422.99 2120.07 1419.92 2110.94 1416.43V1416.43C2100.98 1412.7 2088.34 1410.3 2054.97 1408.89C2021.6 1407.48 1968.05 1407.07 1876.58 1407.07C1767.08 1407.07 1708.63 1407.9 1677.47 1413.56C1661.87 1416.39 1654.36 1420.25 1650.52 1424.7C1646.78 1429.03 1645.61 1434.93 1645.61 1444.67C1645.61 1453.71 1648.11 1459.82 1652.94 1464.24C1657.85 1468.72 1665.79 1472.07 1678.03 1474.05L1679.23 1474.24L1679.29 1474.25L1679.35 1474.26C1690.35 1476.21 1713.14 1477.82 1755.94 1479.34C1798.6 1480.86 1860.79 1482.27 1950.34 1483.89H1950.35C2229.27 1489.54 2285.13 1493.53 2340.87 1515.82L2340.9 1515.83L2340.93 1515.85C2370.81 1528.26 2391.91 1544.05 2405.38 1566.89C2418.77 1589.6 2424.21 1618.61 2424.21 1656.65C2424.21 1704.17 2415.21 1740.49 2394.38 1767.67C2373.52 1794.88 2341.42 1812.12 2296.96 1822.79L2296.95 1822.79C2271 1828.99 2231.17 1833.05 2166.53 1835.58C2101.8 1838.11 2011.85 1839.12 1885.47 1839.12C1754 1839.12 1662.38 1837.3 1596.12 1832.43C1529.92 1827.56 1488.62 1819.63 1458 1807.18L1456.61 1806.62C1427.59 1794.78 1407.48 1780.55 1394.79 1759.39C1381.98 1738.03 1377.21 1710.37 1377.21 1672.83V1641.66H1637.99V1646.94C1637.99 1663.09 1639.31 1672.7 1642.52 1679.18C1645.43 1685.05 1650.21 1688.96 1659.18 1692.65L1660.06 1693.01L1660.07 1693.01L1660.08 1693.01C1671.34 1697.54 1683.67 1700.33 1716.16 1701.94C1748.71 1703.55 1800.96 1703.96 1891.82 1703.96C1961.06 1703.96 2012.92 1703.96 2051.79 1703.21C2090.75 1702.47 2116.34 1700.98 2133.2 1698.07C2150.25 1695.13 2156.9 1690.96 2159.94 1686.24C2161.51 1683.81 2162.43 1680.77 2162.92 1676.64C2163.42 1672.44 2163.43 1667.56 2163.43 1661.5C2163.43 1653.86 2162.29 1648.35 2159.87 1644.16C2157.52 1640.09 2153.61 1636.69 2146.86 1633.93C2132.88 1628.21 2108.52 1625.93 2067.04 1625.52H2067.01L2066.97 1625.52L1863.75 1620.67L1863.73 1620.67H1863.72L1726.54 1616.62V1616.62L1658.01 1615C1553.34 1612.98 1485 1603.54 1442.85 1578.88C1421.54 1566.41 1406.9 1550.06 1397.68 1529.01C1388.52 1508.11 1384.83 1482.87 1384.83 1452.76C1384.83 1400.65 1396.43 1361.83 1423.82 1334.06C1451.07 1306.43 1493.12 1290.63 1551.96 1282.48L1551.98 1282.47L1552 1282.47C1601.96 1275.95 1719.2 1272.72 1922.3 1272.72ZM3489.98 1280.81V1428.92H3112.74V1831.03H2831.64V1428.92H2454.41V1280.81H3489.98ZM3819.76 1280.81V1831.03H3538.65V1280.81H3819.76ZM4209.23 1280.81V1682.92H4811.28V1831.03H3928.13V1280.81H4209.23Z" fill="white" stroke="white" stroke-width="10.5622"/>
</g>
<defs>
<clipPath id="clip0_3_105">
<rect width="2832" height="2832" fill="white"/>
</clipPath>
</defs>
</svg>
