<svg width="728" height="728" viewBox="0 0 728 728" fill="none" xmlns="http://www.w3.org/2000/svg">
<rect width="728" height="728" fill="#EC98CA"/>
<g clip-path="url(#clip0_3_236)">
<path d="M289.182 366.307L235.3 366.773L235.155 475.089L191.973 474.944L191.799 367.441L164.349 365.173L164 325.423L192.526 324.493C190.49 301.725 194.62 280.265 211.369 266.366C226.257 253.978 249.432 248.512 268.769 256.188L268.478 293.35C257.487 293.903 248.298 294.455 242.192 299.34C236.085 304.225 234.021 315.45 236.521 324.551L332.741 325.394L332.799 474.507L289.589 475.467L289.211 366.278L289.182 366.307Z" fill="black"/>
<path d="M439.342 397.537L505.582 474.826L450.944 475.495L396.946 409.371L396.19 475.146L353.154 475.263L353.212 261.102L396.161 261.218L396.917 385.702L448.822 324.928L500.406 325.568L439.342 397.537Z" fill="black"/>
<path d="M304.049 253.048C317.919 248.803 331.499 257.933 335.599 269.012C341.007 283.609 332.284 298.178 320.652 302.626C305.328 308.471 290.818 300.097 286.456 287.099C281.6 272.647 288.754 257.73 304.049 253.048Z" fill="black"/>
<path d="M526.614 427.545C541.007 420.77 555.779 428.069 561.886 440.892C567.527 452.727 561.537 468.749 548.568 474.681C536.384 480.235 522.194 475.786 515.419 464.766C507.626 452.117 511.057 434.844 526.614 427.516V427.545Z" fill="black"/>
</g>
<defs>
<clipPath id="clip0_3_236">
<rect width="400" height="225.094" fill="white" transform="translate(164 252)"/>
</clipPath>
</defs>
</svg>
